<?xml version="1.0" encoding="UTF-8"?>
<svg id="Layer_1" xmlns="http://www.w3.org/2000/svg" version="1.1" viewBox="-1.2 -1 14.61 12.26">
  <!-- Generator: Adobe Illustrator 29.4.0, SVG Export Plug-In . SVG Version: 2.1.0 Build 152)  -->
  <defs>
    <style>
      .st0 {
        fill: #ed1c24;
      }
    </style>
  </defs>
  <rect x="0" y="0" width="12.21" height="10.26" rx="2.2" fill="#101114"/>
  <path class="st0" d="M12.19,6.21c-.09.23-.43.6-.76.68.05-.37-.27-.58-.5-.64.15-.71-.15-1.58-1.2-2.55-.89-.84-2.56-2-2.49-3.48-.26.31-.44,1.24-.2,1.79.73.83,2.26,1.71,2.66,3.09-.68-1.61-3.97-2.88-3.83-5.1-.41.42-.66,1.97-.33,2.8.63.36,1.17.98,1.26,1.53-.41-.89-1.72-1.28-2.68-1.96-.41-.3-.76-.64-.96-1.1-.19.55-.08,1.24.24,1.7,0,0-.61-.23-1.84-.18.34.14,1.23.88,1.11,1.31h.01c-.12.44-1.84.94-2.68,1.75,1.24-.24,1.87-.04,2.07.46.14.35-.03.85-.14,1.43.3-.32,1.12-.89,1.95-1.26.33-.14.65-.26.95-.31-.2-.06-.65-.15-.94-.17-.07-.02-.13-.02-.18-.02.06-.07.12-.13.19-.18.83-.73,2.32-.95,3.17-.74-.6-.03-1.78.27-2.25.64.38.06.76.15,1.12.27-.56.21-1.27.84-1.51,1.52.74-.49,2.2-.36,2.43.65.1.45-.08.87-.28,1.13-.1.14-.22.24-.31.27.2.04.73-.02.93-.11-.07.28-.53.75-.8.83.71,0,1.71-.4,2.07-1.01.03-.05.06-.1.08-.15,0,0-.46.15-.67-.06-.19-.18.04-.91.08-1.05-.07.07-.32.33-.52.14-.25-.24.09-1.04.23-1.23-.24-.1-.92-.17-1.21-.14.84-.3,2.73-.45,2.93-.1.16.29-.24.86-.24.86.33-.02,1.29-.01,1.63.38.34.41.14.93.14.93.76-.34,1.43-1.51,1.27-2.62ZM8.4,4.89c.85.3,1.1,1.08,1.1,1.08-.71,0-.94-.52-1.1-1.08Z"/>
</svg>
